<svg xmlns="http://www.w3.org/2000/svg" width="20" height="19.945" viewBox="0 0 20 19.945">
  <path id="Shape_4" data-name="Shape 4" d="M182.762,6749a1.761,1.761,0,0,1-1.762-1.756v-10.476a.83.83,0,0,1,.33-.663l2.026-1.52v-1.965a1.76,1.76,0,0,1,1.762-1.757h3.2l2.186-1.641a.837.837,0,0,1,1,0l2.187,1.641h3.194a1.762,1.762,0,0,1,1.763,1.757v1.966l2.024,1.519a.831.831,0,0,1,.332.663v10.476a1.762,1.762,0,0,1-1.763,1.756Zm15.079-1.657-5.181-3.86-1.157.875a.832.832,0,0,1-1.006,0l-1.173-.886-5.2,3.872Zm1.5-.954v-7.953l-5.3,4Zm-16.674-.024,5.282-3.937-5.282-3.993Zm8.337-3.708,5.981-4.521v-5.517a.1.1,0,0,0-.1-.1H185.118a.1.1,0,0,0-.1.1v5.517Zm7.644-5.779.145-.109-.145-.109Zm-15.288,0v-.218l-.145.109Z" transform="translate(-181 -6729.055)" fill="#fff"/>
</svg>
