<svg xmlns="http://www.w3.org/2000/svg" width="19" height="19.957" viewBox="0 0 19 19.957">
  <path id="Shape_20" data-name="Shape 20" d="M184.4,7693h-11.59a.811.811,0,0,1-.815-.807V7679.47a.8.8,0,0,1,.371-.676l8.686-5.62a.821.821,0,0,1,.888,0l8.686,5.62a.806.806,0,0,1,.369.676v12.723a.809.809,0,0,1-.813.807Zm4.97-1.614v-11.48l-7.873-5.091-7.873,5.091v11.48h4.155v-7.072a.81.81,0,0,1,.813-.807H184.4a.811.811,0,0,1,.815.807v7.072Zm-5.782,0v-6.265h-4.182v6.265Z" transform="translate(-171.999 -7673.043)" fill="#e3b000"/>
</svg>
