<svg xmlns="http://www.w3.org/2000/svg" width="18" height="18" viewBox="0 0 18 18">
  <path id="Shape_12" data-name="Shape 12" d="M1433.248,7743a3.253,3.253,0,0,1-3.249-3.249v-11.5a3.253,3.253,0,0,1,3.249-3.249h11.5a3.252,3.252,0,0,1,3.247,3.249v11.5a3.252,3.252,0,0,1-3.247,3.249Zm-1.378-14.751v11.5a1.381,1.381,0,0,0,1.378,1.38h11.5a1.381,1.381,0,0,0,1.378-1.38v-11.5a1.379,1.379,0,0,0-1.378-1.378h-11.5A1.379,1.379,0,0,0,1431.87,7728.248Zm2.05,5.752a5.08,5.08,0,1,1,5.08,5.08A5.087,5.087,0,0,1,1433.92,7734Zm1.869,0a3.21,3.21,0,1,0,3.21-3.21A3.212,3.212,0,0,0,1435.79,7734Zm7.26-5.08a1.06,1.06,0,1,1,1.061,1.061A1.059,1.059,0,0,1,1443.05,7728.92Z" transform="translate(-1429.999 -7724.999)" fill="#e3b000"/>
</svg>
