<svg xmlns="http://www.w3.org/2000/svg" width="16.439" height="18.471" viewBox="0 0 16.439 18.471">
  <path id="Shape_11" data-name="Shape 11" d="M1433.471,7683.2a2.117,2.117,0,0,1,1.582.668,2.231,2.231,0,0,1,.647,1.612,2.177,2.177,0,0,1-.647,1.6,2.138,2.138,0,0,1-1.582.651,2.087,2.087,0,0,1-1.567-.651,2.2,2.2,0,0,1-.628-1.6,2.259,2.259,0,0,1,.628-1.612A2.067,2.067,0,0,1,1433.471,7683.2Zm-1.808,18.471v-12.607h3.617v12.607Zm8.979-12.607v.585a4.575,4.575,0,0,1,2.326-.456,5.808,5.808,0,0,1,2.326.586,4.611,4.611,0,0,1,1.758,1.792,4.839,4.839,0,0,1,.662,2.41v7.688h-3.554v-7.688a1.349,1.349,0,0,0-.192-.618.793.793,0,0,0-.421-.424,1.783,1.783,0,0,0-1.067-.228,3.146,3.146,0,0,0-.936.261,3.507,3.507,0,0,0-.9.619v8.079h-3.617v-12.607Z" transform="translate(-1431.276 -7683.202)" fill="#e3b000"/>
</svg>
