<svg xmlns="http://www.w3.org/2000/svg" width="16.781" height="19.622" viewBox="0 0 16.781 19.622">
  <path id="Shape_19" data-name="Shape 19" d="M181.535,7729.729l-5.284-5.25a8.177,8.177,0,0,1,.047-11.669,8.294,8.294,0,0,1,11.785.049,8.006,8.006,0,0,1,.078,11.593l-5.31,5.277a.937.937,0,0,1-1.315,0Zm-3.961-15.6a6.362,6.362,0,0,0-.01,9.063l4.629,4.6,4.629-4.6a6.185,6.185,0,0,0-.047-9.046,6.592,6.592,0,0,0-4.584-1.958A6.846,6.846,0,0,0,177.574,7714.13Zm1.108,4.7a3.528,3.528,0,1,1,3.529,3.477A3.508,3.508,0,0,1,178.681,7718.834Zm1.851,0a1.677,1.677,0,1,0,1.678-1.653A1.667,1.667,0,0,0,180.532,7718.834Z" transform="translate(-173.826 -7710.377)" fill="#e3b000"/>
</svg>
