<svg xmlns="http://www.w3.org/2000/svg" width="19.538" height="19.862" viewBox="0 0 19.538 19.862">
  <path id="Shape_3" data-name="Shape 3" d="M195.3,6628c-2.635,0-6.116-1.756-9.178-4.871a18.138,18.138,0,0,1-4.32-6.669c-.806-2.417-.592-4.416.6-5.632l2.237-2.275a1.378,1.378,0,0,1,1.971,0l3.275,3.33a1.437,1.437,0,0,1,0,2.005l-1.823,1.854a1.393,1.393,0,0,1-.109.1,1.579,1.579,0,0,0,.182,1.984l3.172,3.228a1.52,1.52,0,0,0,2.171,0l1.726-1.757a1.376,1.376,0,0,1,1.971,0l3.275,3.331a1.436,1.436,0,0,1,0,2l-2.237,2.276A3.95,3.95,0,0,1,195.3,6628Zm-9.672-18.125-2.08,2.115c-.726.739-.8,2.175-.216,3.941a16.48,16.48,0,0,0,3.932,6.035,16.149,16.149,0,0,0,5.933,4c1.736.6,3.148.519,3.874-.22l2.08-2.115-2.96-3.011-1.569,1.6a3.117,3.117,0,0,1-4.456,0L187,6618.989a3.244,3.244,0,0,1-.247-4.249.8.8,0,0,1,.194-.181l1.646-1.674Z" transform="translate(-181.326 -6608.137)" fill="#fff"/>
</svg>
